<svg width="250" height="40" viewBox="0 0 250 40" fill="none" xmlns="http://www.w3.org/2000/svg">
<g clip-path="url(#clip0_10830_3147)">
<path d="M20.4734 0.616732C22.376 0.162133 24.42 0.433398 26.1765 1.26156C27.2181 1.84892 27.9364 2.87249 28.3191 3.97134C28.8871 5.59146 28.91 7.33802 28.7745 9.02883C28.5438 11.4898 27.9447 13.911 27.0884 16.2334C26.7874 17.022 26.4681 17.8093 26.0374 18.5404C25.9511 18.6875 25.8572 18.8317 25.7351 18.9536C26.1676 17.8444 26.5004 16.7001 26.7792 15.5455C27.1647 13.8972 27.4194 12.211 27.4006 10.5168C27.3889 8.8932 27.1137 7.2271 26.3032 5.79146C25.4646 4.29146 23.964 3.1426 22.2504 2.78111C20.8167 2.47708 19.319 2.76042 17.9869 3.31502C16.1993 4.061 14.6271 5.22307 13.2063 6.50698C12.4804 7.16905 11.7996 7.87768 11.1553 8.61618C12.1183 6.94549 13.3155 5.40123 14.6964 4.03973C16.3002 2.47191 18.2392 1.1334 20.4734 0.616732Z" fill="#DE221A"/>
<path d="M15.2011 2.896C12.7428 5.23221 10.6665 7.94486 8.98399 10.8638C8.01274 12.569 7.18234 14.3529 6.5456 16.2041C5.9429 17.9242 5.52623 19.7047 5.26508 21.5047C5.0362 23.0403 4.9335 24.5978 5.03268 26.1484C5.14536 27.703 5.47517 29.2771 6.26332 30.6467C6.87365 31.6938 7.78973 32.6495 8.98927 33.0248C8.92471 33.0932 8.82319 33.0967 8.73751 33.1248C7.6213 33.4214 6.41649 33.5139 5.29325 33.2007C4.42646 32.9628 3.6524 32.4231 3.143 31.6961C2.47047 30.7472 2.20227 29.5869 2.0984 28.453C1.94582 26.4834 2.23044 24.5104 2.64242 22.5863C2.93115 21.253 3.29383 19.9363 3.69993 18.6334C3.79441 18.3449 3.86895 18.0483 3.99512 17.7708C4.79735 16.0018 5.72224 14.2874 6.73046 12.623C8.04032 10.4776 9.50688 8.41785 11.1941 6.53911C12.4018 5.19888 13.7258 3.95117 15.2011 2.896Z" fill="#DE221A"/>
<path d="M25.9551 19.2449C27.8688 19.2317 29.7831 19.242 31.6975 19.2397C31.6981 19.6932 31.6975 20.1461 31.6981 20.5995C30.9844 20.603 30.2702 20.5966 29.5566 20.603C29.5607 22.8277 29.5554 25.0524 29.559 27.2777C29.0748 27.2794 28.5907 27.2714 28.1071 27.2817C28.0883 25.0553 28.1024 22.8277 28.0995 20.6007C27.3847 20.5978 26.6699 20.6047 25.9551 20.5972C25.9615 20.1466 25.9615 19.6955 25.9551 19.2449Z" fill="#DE221A"/>
<path d="M7.36329 19.3408C8.29345 19.3425 9.22421 19.3414 10.155 19.342C10.6843 19.3471 11.216 19.3517 11.7418 19.4219C12.3921 19.5155 12.9631 19.9443 13.2753 20.5035C13.5106 20.9276 13.5804 21.4201 13.5693 21.8972C13.5552 22.3523 13.4513 22.8173 13.1867 23.1983C12.8252 23.7644 12.182 24.1385 11.5083 24.2115C10.6767 24.3115 9.83747 24.2793 9.00238 24.2822C9.00179 25.2782 8.99475 26.2748 9.0059 27.2713C8.45777 27.2828 7.90906 27.2771 7.36035 27.2742C7.36857 24.6299 7.3627 21.9851 7.36329 19.3408ZM8.99827 20.6897C9.00296 21.4374 9.0012 22.1851 8.99944 22.9328C9.61505 22.9431 10.2342 22.9529 10.848 22.8885C11.1485 22.8575 11.4466 22.7299 11.6409 22.4972C11.9196 22.1638 11.959 21.6673 11.7629 21.2862C11.5793 20.942 11.1896 20.7403 10.8017 20.7173C10.2019 20.6782 9.59921 20.6707 8.99827 20.6897Z" fill="#DE221A"/>
<path d="M13.8018 19.3489C15.7167 19.3369 17.6328 19.3449 19.5483 19.3449C19.5477 19.7978 19.5483 20.2501 19.5477 20.703C18.8317 20.7122 18.1152 20.6909 17.3998 20.7139C17.415 22.9363 17.4045 25.1599 17.4051 27.3829C16.9186 27.3771 16.4326 27.3817 15.9467 27.3806C15.9491 25.1553 15.9461 22.93 15.9485 20.7047C15.2343 20.703 14.5201 20.7053 13.8059 20.7041C13.8059 20.2518 13.8135 19.8001 13.8018 19.3489Z" fill="#DE221A"/>
<path d="M21.8686 22.3489C22.4226 22.8885 22.976 23.4288 23.5253 23.9736C23.5194 25.0747 23.5247 26.1765 23.5229 27.2776C22.9707 27.3133 22.4184 27.3437 21.8662 27.3811C21.8691 25.7035 21.865 24.0265 21.8686 22.3489Z" fill="#DE221A"/>
<path d="M20.0582 25.4501C20.6192 24.68 21.1562 23.8622 21.408 22.9392C21.4361 24.2794 21.4027 25.6197 21.4203 26.9605C21.4191 27.0317 21.3727 27.0909 21.3428 27.1536C20.3281 29.0214 18.7571 30.5375 17.0517 31.8071C15.8821 32.672 14.6268 33.4226 13.3287 34.0881C12.4977 34.5186 11.6233 34.8755 10.709 35.095C9.5335 35.3795 8.28585 35.4283 7.10568 35.1427C5.57457 34.7766 4.19252 33.8726 3.22949 32.6553C3.9525 33.38 4.96248 33.7749 5.9795 33.8841C7.32223 34.0346 8.67493 33.7398 9.92552 33.2708C11.8745 32.5306 13.6145 31.3605 15.2489 30.1013C17.0189 28.7323 18.7114 27.2318 20.0582 25.4501Z" fill="#DE221A"/>
<path d="M0.67347 36.0432C5.32079 36.0496 9.96869 36.0455 14.616 36.0455C15.2885 36.034 16.0303 36.0369 16.5955 36.4461C17.1412 36.0197 17.8807 36.0352 18.5421 36.0415C23.1037 36.0438 27.6648 36.0438 32.2258 36.0421C32.2252 36.2438 32.2305 36.4461 32.2217 36.649C27.5462 36.6496 22.8707 36.6513 18.1952 36.6467C17.8179 36.6507 17.4171 36.6691 17.082 36.8559C16.9846 36.9042 16.9276 36.9967 16.8848 37.0909C16.6853 37.0984 16.4863 37.1082 16.2874 37.122C16.2733 36.9214 16.0732 36.826 15.9012 36.7725C15.3519 36.5984 14.7674 36.6628 14.2005 36.6536C9.69169 36.6559 5.18288 36.6484 0.674057 36.657C0.669362 36.4524 0.670536 36.2478 0.67347 36.0432Z" fill="#DE221A"/>
<path d="M0.670898 37.0933C5.43793 37.0956 10.2044 37.0938 14.9708 37.0938C15.4761 37.1266 15.9638 37.368 16.2754 37.7617C16.2766 38.3915 16.276 39.022 16.2754 39.6519C15.9638 39.1025 15.2736 38.9237 14.6745 38.9232C10.0072 38.9369 5.33993 38.9611 0.673246 38.9904C0.669725 38.3582 0.673833 37.7254 0.670898 37.0933Z" fill="#DE221A"/>
<path d="M16.6191 37.7673C16.9325 37.3599 17.4378 37.1196 17.9542 37.0921C22.7084 37.0944 27.4631 37.0984 32.2172 37.0903C32.2395 37.7219 32.2201 38.3553 32.2266 38.9875C27.5476 38.9651 22.8686 38.934 18.189 38.9237C17.6004 38.9288 16.9343 39.1122 16.6215 39.6438C16.6191 39.0185 16.625 38.3926 16.6191 37.7673Z" fill="#DE221A"/>
<path d="M24.3582 15.2568C24.3776 15.1838 24.4199 15.1195 24.4574 15.054C24.2761 16.4563 24.046 17.8534 23.8494 19.2545C23.4656 19.4408 23.1041 19.6718 22.7109 19.8396C23.1528 18.5919 23.6212 17.3534 24.0736 16.1091C24.1716 15.8258 24.299 15.5517 24.3582 15.2568Z" fill="#B89C0E"/>
<path d="M20.1279 19.2627C20.7324 19.5248 21.3275 19.8081 21.9308 20.0725C22.0112 20.1052 22.0851 20.1518 22.1526 20.2064C21.7359 20.3587 21.3175 20.5064 20.9008 20.6593C20.6414 20.1949 20.3691 19.7363 20.1279 19.2627Z" fill="#B89C0E"/>
<path d="M19.2439 23.5005C20.2832 22.5126 21.3096 21.5108 22.3554 20.5298C22.7345 21.4557 23.1383 22.3735 23.4863 23.3103C23.0503 22.8459 22.6365 22.3608 22.2181 21.8809C21.1864 22.462 20.1805 23.0901 19.1406 23.6562C19.1688 23.6005 19.1964 23.543 19.2439 23.5005Z" fill="#B89C0E"/>
<path d="M22.1384 19.2252C22.8784 17.9028 23.6002 16.5695 24.3579 15.2568C24.2986 15.5517 24.1712 15.8258 24.0732 16.1091C23.6208 17.3534 23.1525 18.5919 22.7106 19.8396C23.1038 19.6718 23.4653 19.4408 23.8491 19.2545C24.4612 19.2344 25.0744 19.2534 25.6871 19.2293C25.6889 19.2448 25.693 19.2752 25.6947 19.2908C25.6818 19.2931 25.6566 19.2977 25.6437 19.3005C25.531 19.3206 25.4195 19.3431 25.3115 19.3798C24.4013 19.6942 23.487 19.9965 22.5768 20.3103C22.8761 20.4821 23.2117 20.581 23.5234 20.7293C23.5187 21.6086 23.5304 22.4885 23.5175 23.3678C23.5093 23.3534 23.494 23.3247 23.4864 23.3103C23.1384 22.3735 22.7346 21.4557 22.3555 20.5298C21.3097 21.5109 20.2833 22.5126 19.244 23.5005C19.1965 23.5431 19.1689 23.6005 19.1407 23.6563C19.1055 23.7207 19.0169 23.7322 18.96 23.7724C19.6143 22.7396 20.251 21.6954 20.9007 20.6592C21.3174 20.5063 21.7358 20.3586 22.1525 20.2063C22.085 20.1517 22.011 20.1051 21.9306 20.0724C21.3273 19.808 20.7323 19.5247 20.1278 19.2626L20.1055 19.2534C20.7827 19.2367 21.4606 19.2419 22.1384 19.2252Z" fill="#EFF003"/>
<path d="M25.3119 19.3798C25.4199 19.3431 25.5314 19.3207 25.6441 19.3005C24.9439 19.7862 24.2303 20.2534 23.5237 20.7293C23.2121 20.581 22.8764 20.4822 22.5771 20.3103C23.4874 19.9965 24.4017 19.6942 25.3119 19.3798Z" fill="#B89C0D"/>
</g>
<path d="M247.363 12.1413C245.881 12.1413 244.948 11.4817 244.79 10.6263L244.779 10.5799H246.071L246.087 10.6211C246.229 10.9355 246.678 11.1725 247.363 11.1725C248.218 11.1725 248.687 10.7294 248.687 10.0337V9.24525H248.661C248.349 9.82756 247.717 10.1986 246.915 10.1986C245.512 10.1986 244.61 9.14735 244.61 7.44681V7.44166C244.61 5.71536 245.523 4.65381 246.936 4.65381C247.727 4.65381 248.339 5.06606 248.655 5.69474H248.687V4.76718H250V10.0749C250 11.3117 248.982 12.1413 247.363 12.1413ZM247.326 9.20918C248.144 9.20918 248.692 8.53412 248.692 7.47258V7.46742C248.692 6.41103 248.139 5.73597 247.326 5.73597C246.483 5.73597 245.95 6.40072 245.95 7.46227V7.46742C245.95 8.54443 246.483 9.20918 247.326 9.20918Z" fill="#BC2826"/>
<path d="M238.594 10.2295V4.76718H239.907V5.6226H239.933C240.223 5.03514 240.793 4.65381 241.642 4.65381C242.871 4.65381 243.572 5.42678 243.572 6.69445V10.2295H242.259V6.95211C242.259 6.17398 241.89 5.73597 241.141 5.73597C240.387 5.73597 239.907 6.27189 239.907 7.06032V10.2295H238.594Z" fill="#BC2826"/>
<path d="M233.041 4.14892L234.264 2.46899H235.388L236.622 4.14892H235.625L234.823 3.07191L234.037 4.14892H233.041ZM234.829 10.3378C233.183 10.3378 232.123 9.26598 232.123 7.49846V7.48815C232.123 5.73608 233.199 4.65392 234.823 4.65392C236.453 4.65392 237.534 5.72578 237.534 7.48815V7.49846C237.534 9.27114 236.469 10.3378 234.829 10.3378ZM234.834 9.30206C235.662 9.30206 236.194 8.64245 236.194 7.49846V7.48815C236.194 6.34931 235.657 5.69486 234.823 5.69486C234.006 5.69486 233.463 6.35446 233.463 7.48815V7.49846C233.463 8.64761 233.995 9.30206 234.834 9.30206Z" fill="#BC2826"/>
<path d="M226.037 10.2297V2.7937H227.35V5.68461H227.382C227.672 5.03016 228.268 4.65398 229.106 4.65398C230.309 4.65398 231.079 5.50941 231.079 6.82861V10.2297H229.766V7.08111C229.766 6.24115 229.333 5.73614 228.579 5.73614C227.835 5.73614 227.35 6.28753 227.35 7.08111V10.2297H226.037Z" fill="#BC2826"/>
<path d="M224.233 10.3378C223.063 10.3378 222.509 9.87406 222.509 8.75067V5.7567H221.718V4.7673H222.509V3.3811H223.843V4.7673H224.882V5.7567H223.843V8.64246C223.843 9.17838 224.086 9.34844 224.566 9.34844C224.692 9.34844 224.792 9.33298 224.882 9.32783V10.2915C224.729 10.3121 224.497 10.3378 224.233 10.3378Z" fill="#BC2826"/>
<path d="M213.528 10.2295V4.76718H214.841V5.6226H214.868C215.158 5.03514 215.727 4.65381 216.577 4.65381C217.805 4.65381 218.507 5.42678 218.507 6.69445V10.2295H217.194V6.95211C217.194 6.17398 216.824 5.73597 216.076 5.73597C215.321 5.73597 214.841 6.27189 214.841 7.06032V10.2295H213.528Z" fill="#BC2826"/>
<path d="M210.744 2.18553C210.401 2.18553 210.137 2.06185 209.937 1.91757L209.715 1.76297C209.552 1.64445 209.394 1.55169 209.246 1.55169C209.019 1.55169 208.914 1.73205 208.914 2.134V2.17522H208.123V2.10308C208.123 1.20128 208.486 0.747803 209.077 0.747803C209.415 0.747803 209.694 0.876631 209.889 1.02092L210.105 1.17036C210.274 1.29404 210.427 1.38679 210.58 1.38679C210.796 1.38679 210.912 1.20128 210.912 0.804487V0.758109H211.698V0.835406C211.698 1.73721 211.329 2.18553 210.744 2.18553ZM208.096 4.17464L209.335 2.59263H210.475L211.719 4.17464H210.717L209.9 3.13886L209.098 4.17464H208.096ZM209.937 10.3378C208.26 10.3378 207.247 9.25048 207.247 7.51387V7.50872C207.247 5.78757 208.275 4.65388 209.873 4.65388C211.471 4.65388 212.463 5.7515 212.463 7.4005V7.81276H208.55C208.571 8.77124 209.109 9.33809 209.963 9.33809C210.617 9.33809 211.044 8.99798 211.171 8.6321L211.181 8.59603H212.41L212.394 8.65272C212.22 9.49268 211.398 10.3378 209.937 10.3378ZM209.889 5.65874C209.193 5.65874 208.671 6.11737 208.566 6.95733H211.187C211.092 6.09161 210.585 5.65874 209.889 5.65874Z" fill="#BC2826"/>
<path d="M205.491 3.98396C205.08 3.98396 204.758 3.66446 204.758 3.28313C204.758 2.89149 205.08 2.57715 205.491 2.57715C205.902 2.57715 206.219 2.89149 206.219 3.28313C206.219 3.66446 205.902 3.98396 205.491 3.98396ZM204.832 10.2296V4.76723H206.145V10.2296H204.832Z" fill="#BC2826"/>
<path d="M199.785 10.2297L197.148 2.7937H198.63L200.561 8.81257H200.587L202.522 2.7937H204.004L201.362 10.2297H199.785Z" fill="#BC2826"/>
<path d="M188.848 10.2297V2.7937H190.161V5.68461H190.192C190.483 5.03016 191.078 4.65398 191.917 4.65398C193.119 4.65398 193.889 5.50941 193.889 6.82861V10.2297H192.576V7.08111C192.576 6.24115 192.144 5.73614 191.39 5.73614C190.646 5.73614 190.161 6.28753 190.161 7.08111V10.2297H188.848Z" fill="#BC2826"/>
<path d="M182.562 10.2295V4.76718H183.875V5.6226H183.901C184.191 5.03514 184.761 4.65381 185.61 4.65381C186.839 4.65381 187.54 5.42678 187.54 6.69445V10.2295H186.227V6.95211C186.227 6.17398 185.858 5.73597 185.109 5.73597C184.355 5.73597 183.875 6.27189 183.875 7.06032V10.2295H182.562Z" fill="#BC2826"/>
<path d="M180.9 4.14892H179.983L180.927 2.46899H182.145L180.9 4.14892ZM179.914 10.2296V4.76729H181.227V10.2296H179.914Z" fill="#BC2826"/>
<path d="M173.56 10.2297V2.7937H174.873V5.68461H174.904C175.194 5.03016 175.79 4.65398 176.629 4.65398C177.831 4.65398 178.601 5.50941 178.601 6.82861V10.2297H177.288V7.08111C177.288 6.24115 176.856 5.73614 176.102 5.73614C175.358 5.73614 174.873 6.28753 174.873 7.08111V10.2297H173.56Z" fill="#BC2826"/>
<path d="M170.058 10.3377C168.396 10.3377 167.357 9.24525 167.357 7.49319V7.48803C167.357 5.74627 168.412 4.65381 170.042 4.65381C171.513 4.65381 172.431 5.56591 172.51 6.65838L172.515 6.6996H171.276L171.265 6.65323C171.155 6.12245 170.754 5.69474 170.058 5.69474C169.23 5.69474 168.697 6.38011 168.697 7.49834V7.50349C168.697 8.64234 169.235 9.30194 170.063 9.30194C170.727 9.30194 171.149 8.91545 171.271 8.34346L171.281 8.29708H172.52L172.515 8.33315C172.415 9.47199 171.471 10.3377 170.058 10.3377Z" fill="#BC2826"/>
<path d="M160.866 10.3379C159.637 10.3379 158.936 9.56491 158.936 8.29723V4.76733H160.249V8.04473C160.249 8.8177 160.618 9.25572 161.367 9.25572C162.121 9.25572 162.601 8.72494 162.601 7.93136V4.76733H163.914V10.2297H162.601V9.37424H162.574C162.284 9.95654 161.71 10.3379 160.866 10.3379Z" fill="#BC2826"/>
<path d="M154.332 10.3378C153.103 10.3378 152.401 9.56482 152.401 8.29715V4.76725H153.715V8.04464C153.715 8.81761 154.084 9.25563 154.833 9.25563C155.587 9.25563 156.067 8.72486 156.067 7.93127V4.76725C157.164 4.62296 157.401 4.30346 157.39 3.24707H158.445C158.445 4.355 158.187 4.89092 157.38 5.1898V10.2296H156.067V9.37415H156.04C155.75 9.95646 155.175 10.3378 154.332 10.3378Z" fill="#BC2826"/>
<path d="M145.572 10.2297V2.7937H148.731C150.118 2.7937 151.01 3.52545 151.01 4.65398V4.66429C151.01 5.46303 150.393 6.17931 149.575 6.28753V6.31329C150.646 6.40605 151.373 7.1378 151.373 8.11689V8.1272C151.373 9.42579 150.387 10.2297 148.763 10.2297H145.572ZM148.388 3.82948H146.933V5.93712H148.156C149.137 5.93712 149.665 5.54548 149.665 4.84465V4.83434C149.665 4.1902 149.195 3.82948 148.388 3.82948ZM148.373 6.90075H146.933V9.1939H148.452C149.449 9.1939 149.986 8.79711 149.986 8.0499V8.0396C149.986 7.29239 149.438 6.90075 148.373 6.90075Z" fill="#BC2826"/>
<path d="M137.651 4.14892L138.88 2.46899H140.004L141.232 4.14892H140.241L139.434 3.07191L138.648 4.14892H137.651ZM139.471 10.3378C137.794 10.3378 136.781 9.25052 136.781 7.51392V7.50876C136.781 5.78762 137.81 4.65392 139.408 4.65392C141.006 4.65392 141.997 5.75154 141.997 7.40055V7.8128H138.084C138.105 8.77128 138.643 9.33813 139.497 9.33813C140.151 9.33813 140.578 8.99802 140.705 8.63215L140.716 8.59608H141.944L141.928 8.65276C141.754 9.49272 140.932 10.3378 139.471 10.3378ZM139.423 5.65879C138.727 5.65879 138.205 6.11742 138.1 6.95738H140.721C140.626 6.09165 140.12 5.65879 139.423 5.65879ZM139.476 12.4146C139.07 12.4146 138.748 12.0951 138.748 11.7137C138.748 11.3272 139.07 11.0129 139.476 11.0129C139.893 11.0129 140.209 11.3272 140.209 11.7137C140.209 12.0951 139.893 12.4146 139.476 12.4146Z" fill="#BC2826"/>
<path d="M130.695 10.2297V2.7937H132.008V5.68461H132.04C132.33 5.03016 132.926 4.65398 133.765 4.65398C134.967 4.65398 135.737 5.50941 135.737 6.82861V10.2297H134.424V7.08111C134.424 6.24115 133.991 5.73614 133.237 5.73614C132.494 5.73614 132.008 6.28753 132.008 7.08111V10.2297H130.695Z" fill="#BC2826"/>
<path d="M126.729 12.1413C125.248 12.1413 124.314 11.4817 124.156 10.6263L124.145 10.5799H125.437L125.453 10.6211C125.596 10.9355 126.044 11.1725 126.729 11.1725C127.584 11.1725 128.053 10.7294 128.053 10.0337V9.24525H128.027C127.716 9.82756 127.083 10.1986 126.281 10.1986C124.878 10.1986 123.977 9.14735 123.977 7.44681V7.44166C123.977 5.71536 124.889 4.65381 126.302 4.65381C127.093 4.65381 127.705 5.06606 128.022 5.69474H128.053V4.76718H129.366V10.0749C129.366 11.3117 128.349 12.1413 126.729 12.1413ZM126.693 9.20918C127.51 9.20918 128.058 8.53412 128.058 7.47258V7.46742C128.058 6.41103 127.505 5.73597 126.693 5.73597C125.849 5.73597 125.316 6.40072 125.316 7.46227V7.46742C125.316 8.54443 125.849 9.20918 126.693 9.20918Z" fill="#BC2826"/>
<path d="M117.96 10.2295V4.76718H119.273V5.6226H119.3C119.59 5.03514 120.159 4.65381 121.008 4.65381C122.237 4.65381 122.938 5.42678 122.938 6.69445V10.2295H121.625V6.95211C121.625 6.17398 121.256 5.73597 120.507 5.73597C119.753 5.73597 119.273 6.27189 119.273 7.06032V10.2295H117.96Z" fill="#BC2826"/>
<path d="M111.652 12.1413C110.17 12.1413 109.237 11.4817 109.079 10.6263L109.068 10.5799H110.36L110.376 10.6211C110.518 10.9355 110.967 11.1725 111.652 11.1725C112.507 11.1725 112.976 10.7294 112.976 10.0337V9.24525H112.95C112.639 9.82756 112.006 10.1986 111.204 10.1986C109.801 10.1986 108.899 9.14735 108.899 7.44681V7.44166C108.899 5.71536 109.812 4.65381 111.225 4.65381C112.016 4.65381 112.628 5.06606 112.944 5.69474H112.976V4.76718H114.289V10.0749C114.289 11.3117 113.271 12.1413 111.652 12.1413ZM111.615 9.20918C112.433 9.20918 112.981 8.53412 112.981 7.47258V7.46742C112.981 6.41103 112.428 5.73597 111.615 5.73597C110.772 5.73597 110.239 6.40072 110.239 7.46227V7.46742C110.239 8.54443 110.772 9.20918 111.615 9.20918Z" fill="#BC2826"/>
<path d="M102.883 10.2295V4.76718H104.196V5.6226H104.222C104.512 5.03514 105.082 4.65381 105.931 4.65381C107.16 4.65381 107.861 5.42678 107.861 6.69445V10.2295H106.548V6.95211C106.548 6.17398 106.179 5.73597 105.43 5.73597C104.676 5.73597 104.196 6.27189 104.196 7.06032V10.2295H102.883Z" fill="#BC2826"/>
<path d="M97.3298 4.14892L98.5533 2.46899H99.6766L100.911 4.14892H99.9139L99.1123 3.07191L98.3265 4.14892H97.3298ZM99.1176 10.3378C97.4721 10.3378 96.4121 9.26598 96.4121 7.49846V7.48815C96.4121 5.73608 97.488 4.65392 99.1123 4.65392C100.742 4.65392 101.823 5.72578 101.823 7.48815V7.49846C101.823 9.27114 100.758 10.3378 99.1176 10.3378ZM99.1228 9.30206C99.9508 9.30206 100.483 8.64245 100.483 7.49846V7.48815C100.483 6.34931 99.9456 5.69486 99.1123 5.69486C98.2949 5.69486 97.7517 6.35446 97.7517 7.48815V7.49846C97.7517 8.64761 98.2843 9.30206 99.1228 9.30206Z" fill="#BC2826"/>
<path d="M92.2774 10.3584C90.0888 10.3584 88.707 8.88463 88.707 6.50904V6.50388C88.707 4.12829 90.094 2.66479 92.2774 2.66479C94.0283 2.66479 95.3151 3.73149 95.5155 5.24652L95.5208 5.29805H94.1865L94.1602 5.20014C93.9387 4.34987 93.2689 3.8191 92.2774 3.8191C90.9484 3.8191 90.0993 4.85488 90.0993 6.50388V6.50904C90.0993 8.16319 90.9537 9.20413 92.2774 9.20413C93.2478 9.20413 93.9281 8.69397 94.176 7.77671L94.1918 7.72518H95.5261L95.5155 7.77671C95.3204 9.30204 94.0283 10.3584 92.2774 10.3584Z" fill="#BC2826"/>
<path d="M80.2061 10.2295V4.76718H81.5192V5.6226H81.5456C81.8357 5.03514 82.4052 4.65381 83.2543 4.65381C84.4831 4.65381 85.1845 5.42678 85.1845 6.69445V10.2295H83.8714V6.95211C83.8714 6.17398 83.5022 5.73597 82.7533 5.73597C81.9992 5.73597 81.5192 6.27189 81.5192 7.06032V10.2295H80.2061Z" fill="#BC2826"/>
<path d="M74.795 4.14892L76.0238 2.46899H77.1471L78.3759 4.14892H77.3844L76.5775 3.07191L75.7917 4.14892H74.795ZM76.6144 10.3378C74.9374 10.3378 73.9248 9.25052 73.9248 7.51392V7.50876C73.9248 5.78762 74.9532 4.65392 76.5512 4.65392C78.1491 4.65392 79.1406 5.75154 79.1406 7.40055V7.8128H75.2274C75.2485 8.77128 75.7865 9.33813 76.6408 9.33813C77.2948 9.33813 77.7219 8.99802 77.8485 8.63215L77.8591 8.59608H79.0879L79.072 8.65276C78.898 9.49272 78.0753 10.3378 76.6144 10.3378ZM76.567 5.65879C75.8708 5.65879 75.3487 6.11742 75.2433 6.95738H77.8643C77.7694 6.09165 77.2631 5.65879 76.567 5.65879ZM76.6197 12.4146C76.2136 12.4146 75.8919 12.0951 75.8919 11.7137C75.8919 11.3272 76.2136 11.0129 76.6197 11.0129C77.0364 11.0129 77.3528 11.3272 77.3528 11.7137C77.3528 12.0951 77.0364 12.4146 76.6197 12.4146Z" fill="#BC2826"/>
<path d="M72.1696 3.98396C71.7582 3.98396 71.4365 3.66446 71.4365 3.28313C71.4365 2.89149 71.7582 2.57715 72.1696 2.57715C72.5809 2.57715 72.8974 2.89149 72.8974 3.28313C72.8974 3.66446 72.5809 3.98396 72.1696 3.98396ZM71.5104 10.2296V4.76723H72.8235V10.2296H71.5104Z" fill="#BC2826"/>
<path d="M67.2384 10.2297L65.2607 4.76733H66.6583L67.9557 9.03929H67.9873L69.2794 4.76733H70.6506L68.6834 10.2297H67.2384Z" fill="#BC2826"/>
<path d="M59.8877 10.3377C58.2264 10.3377 57.1875 9.24525 57.1875 7.49319V7.48803C57.1875 5.74627 58.2423 4.65381 59.8719 4.65381C61.3433 4.65381 62.2609 5.56591 62.34 6.65838L62.3453 6.6996H61.1059L61.0954 6.65323C60.9846 6.12245 60.5838 5.69474 59.8877 5.69474C59.0597 5.69474 58.527 6.38011 58.527 7.49834V7.50349C58.527 8.64234 59.065 9.30194 59.893 9.30194C60.5575 9.30194 60.9794 8.91545 61.1007 8.34346L61.1112 8.29708H62.3506L62.3453 8.33315C62.2451 9.47199 61.3011 10.3377 59.8877 10.3377Z" fill="#BC2826"/>
<path d="M53.6537 10.3377C52.0083 10.3377 50.9482 9.26587 50.9482 7.49834V7.48803C50.9482 5.73597 52.0241 4.65381 53.6484 4.65381C55.278 4.65381 56.3592 5.72566 56.3592 7.48803V7.49834C56.3592 9.27102 55.2939 10.3377 53.6537 10.3377ZM53.659 9.30194C54.487 9.30194 55.0196 8.64234 55.0196 7.49834V7.48803C55.0196 6.34919 54.4817 5.69474 53.6484 5.69474C52.831 5.69474 52.2878 6.35434 52.2878 7.48803V7.49834C52.2878 8.64749 52.8204 9.30194 53.659 9.30194ZM53.6537 12.4144C53.2476 12.4144 52.9206 12.0949 52.9206 11.7136C52.9206 11.3271 53.2476 11.0128 53.6537 11.0128C54.0703 11.0128 54.3868 11.3271 54.3868 11.7136C54.3868 12.0949 54.0703 12.4144 53.6537 12.4144Z" fill="#BC2826"/>
<path d="M43.333 10.2297V2.7937H44.6937V5.88558H48.3959V2.7937H49.7512V10.2297H48.3959V7.00382H44.6937V10.2297H43.333Z" fill="#BC2826"/>
<path d="M248.462 29.7635C248.462 31.0888 248.211 32.2164 247.709 33.1461C247.21 34.0758 246.53 34.786 245.667 35.2766C244.809 35.7632 243.843 36.0065 242.771 36.0065C241.691 36.0065 240.722 35.7612 239.863 35.2706C239.005 34.7801 238.326 34.0699 237.828 33.1402C237.329 32.2104 237.08 31.0849 237.08 29.7635C237.08 28.4381 237.329 27.3105 237.828 26.3808C238.326 25.4511 239.005 24.7429 239.863 24.2563C240.722 23.7657 241.691 23.5204 242.771 23.5204C243.843 23.5204 244.809 23.7657 245.667 24.2563C246.53 24.7429 247.21 25.4511 247.709 26.3808C248.211 27.3105 248.462 28.4381 248.462 29.7635ZM245.857 29.7635C245.857 28.9049 245.729 28.1809 245.471 27.5914C245.218 27.002 244.86 26.5549 244.397 26.2503C243.934 25.9456 243.392 25.7933 242.771 25.7933C242.15 25.7933 241.608 25.9456 241.145 26.2503C240.682 26.5549 240.322 27.002 240.065 27.5914C239.812 28.1809 239.685 28.9049 239.685 29.7635C239.685 30.622 239.812 31.346 240.065 31.9355C240.322 32.525 240.682 32.972 241.145 33.2767C241.608 33.5813 242.15 33.7336 242.771 33.7336C243.392 33.7336 243.934 33.5813 244.397 33.2767C244.86 32.972 245.218 32.525 245.471 31.9355C245.729 31.346 245.857 30.622 245.857 29.7635ZM239.679 22.6896L242.071 20.844H243.436L245.839 22.6896H244.017L242.765 21.6926L241.495 22.6896H239.679ZM245.216 21.6451L246.605 19.4197H248.563L246.646 21.6451H245.216Z" fill="#051A53"/>
<path d="M232.936 27.1818C232.889 26.7031 232.685 26.3312 232.325 26.0662C231.965 25.8011 231.476 25.6685 230.859 25.6685C230.44 25.6685 230.086 25.7279 229.797 25.8466C229.508 25.9613 229.286 26.1215 229.132 26.3273C228.982 26.533 228.907 26.7664 228.907 27.0275C228.899 27.2451 228.944 27.435 229.043 27.5972C229.146 27.7595 229.286 27.8999 229.464 28.0186C229.642 28.1333 229.848 28.2342 230.082 28.3212C230.315 28.4043 230.564 28.4755 230.829 28.5349L231.921 28.796C232.451 28.9147 232.938 29.0729 233.381 29.2708C233.824 29.4686 234.208 29.7119 234.532 30.0007C234.857 30.2895 235.108 30.6298 235.286 31.0214C235.468 31.4131 235.561 31.8621 235.565 32.3686C235.561 33.1123 235.371 33.7572 234.995 34.3032C234.623 34.8452 234.085 35.2666 233.381 35.5672C232.681 35.864 231.836 36.0123 230.847 36.0123C229.866 36.0123 229.011 35.862 228.283 35.5613C227.559 35.2606 226.994 34.8155 226.586 34.226C226.183 33.6326 225.971 32.8987 225.951 32.0244H228.438C228.465 32.4319 228.582 32.7721 228.788 33.0451C228.998 33.3141 229.276 33.5179 229.625 33.6563C229.977 33.7909 230.374 33.8581 230.817 33.8581C231.253 33.8581 231.63 33.7948 231.951 33.6682C232.275 33.5416 232.527 33.3655 232.705 33.14C232.883 32.9145 232.972 32.6554 232.972 32.3626C232.972 32.0896 232.891 31.8602 232.728 31.6742C232.57 31.4883 232.337 31.33 232.028 31.1995C231.723 31.0689 231.35 30.9502 230.906 30.8434L229.583 30.5111C228.558 30.2618 227.749 29.8721 227.156 29.342C226.562 28.8118 226.268 28.0977 226.272 27.1996C226.268 26.4638 226.464 25.8209 226.859 25.2709C227.259 24.721 227.807 24.2917 228.503 23.9832C229.199 23.6746 229.991 23.5203 230.877 23.5203C231.779 23.5203 232.566 23.6746 233.239 23.9832C233.915 24.2917 234.441 24.721 234.817 25.2709C235.193 25.8209 235.387 26.4578 235.399 27.1818H232.936Z" fill="#051A53"/>
<path d="M217.821 27.615C217.738 27.3262 217.622 27.0711 217.471 26.8495C217.321 26.624 217.137 26.4341 216.919 26.2798C216.706 26.1215 216.461 26.0009 216.184 25.9178C215.911 25.8347 215.608 25.7932 215.276 25.7932C214.654 25.7932 214.108 25.9475 213.638 26.2561C213.171 26.5646 212.807 27.0137 212.546 27.6032C212.285 28.1887 212.154 28.9048 212.154 29.7515C212.154 30.5981 212.283 31.3182 212.54 31.9116C212.797 32.505 213.161 32.958 213.632 33.2706C214.103 33.5792 214.658 33.7335 215.299 33.7335C215.881 33.7335 216.377 33.6306 216.789 33.4249C217.204 33.2152 217.521 32.9205 217.738 32.5407C217.96 32.1609 218.071 31.7118 218.071 31.1935L218.593 31.2707H215.46V29.336H220.545V30.8671C220.545 31.9353 220.32 32.8532 219.869 33.6207C219.418 34.3843 218.797 34.9738 218.005 35.3892C217.214 35.8007 216.308 36.0064 215.287 36.0064C214.148 36.0064 213.147 35.7552 212.285 35.2527C211.422 34.7463 210.75 34.0282 210.267 33.0985C209.788 32.1648 209.549 31.057 209.549 29.7752C209.549 28.7901 209.691 27.9118 209.976 27.1403C210.265 26.3649 210.668 25.7081 211.187 25.17C211.705 24.632 212.308 24.2225 212.997 23.9416C213.685 23.6607 214.431 23.5203 215.234 23.5203C215.922 23.5203 216.563 23.6211 217.157 23.8229C217.75 24.0207 218.276 24.3016 218.735 24.6656C219.198 25.0296 219.576 25.4628 219.869 25.9653C220.162 26.4638 220.35 27.0137 220.433 27.615H217.821Z" fill="#051A53"/>
<path d="M207.639 23.6865V35.8403H205.42L200.132 28.1908H200.043V35.8403H197.474V23.6865H199.729L204.975 31.3301H205.082V23.6865H207.639Z" fill="#051A53"/>
<path d="M187.067 35.8402H184.313L188.509 23.6864H191.821L196.01 35.8402H193.257L190.212 26.4638H190.117L187.067 35.8402ZM186.895 31.063H193.399V33.0688H186.895V31.063ZM191.097 22.3809H189.221L189.091 21.3127C189.51 21.2929 189.809 21.2375 189.987 21.1465C190.165 21.0515 190.252 20.9269 190.248 20.7726C190.252 20.559 190.139 20.4146 189.91 20.3394C189.684 20.2642 189.401 20.2267 189.061 20.2267L189.126 19.0813C190.183 19.0813 190.986 19.2237 191.536 19.5086C192.09 19.7934 192.365 20.1891 192.361 20.6955C192.365 21.0555 192.234 21.3285 191.969 21.5144C191.708 21.6964 191.417 21.8112 191.097 21.8586V22.3809Z" fill="#051A53"/>
<path d="M182.859 23.6865V35.8403H180.289V23.6865H182.859Z" fill="#051A53"/>
<path d="M175.635 27.615C175.552 27.3262 175.435 27.0711 175.285 26.8495C175.134 26.624 174.951 26.4341 174.733 26.2798C174.519 26.1215 174.274 26.0009 173.997 25.9178C173.724 25.8347 173.421 25.7932 173.089 25.7932C172.468 25.7932 171.922 25.9475 171.451 26.2561C170.984 26.5646 170.62 27.0137 170.359 27.6032C170.098 28.1887 169.968 28.9048 169.968 29.7515C169.968 30.5981 170.096 31.3182 170.353 31.9116C170.61 32.505 170.974 32.958 171.445 33.2706C171.916 33.5792 172.472 33.7335 173.113 33.7335C173.694 33.7335 174.191 33.6306 174.602 33.4249C175.018 33.2152 175.334 32.9205 175.552 32.5407C175.773 32.1609 175.884 31.7118 175.884 31.1935L176.406 31.2707H173.273V29.336H178.359V30.8671C178.359 31.9353 178.133 32.8532 177.682 33.6207C177.231 34.3843 176.61 34.9738 175.819 35.3892C175.028 35.8007 174.122 36.0064 173.101 36.0064C171.962 36.0064 170.961 35.7552 170.098 35.2527C169.236 34.7463 168.563 34.0282 168.08 33.0985C167.602 32.1648 167.362 31.057 167.362 29.7752C167.362 28.7901 167.505 27.9118 167.79 27.1403C168.078 26.3649 168.482 25.7081 169 25.17C169.518 24.632 170.122 24.2225 170.81 23.9416C171.499 23.6607 172.244 23.5203 173.048 23.5203C173.736 23.5203 174.377 23.6211 174.97 23.8229C175.564 24.0207 176.09 24.3016 176.549 24.6656C177.012 25.0296 177.39 25.4628 177.682 25.9653C177.975 26.4638 178.163 27.0137 178.246 27.615H175.635Z" fill="#051A53"/>
<path d="M161.594 23.6865V35.8403H159.024V23.6865H161.594Z" fill="#051A53"/>
<path d="M148.618 35.8403H145.864L150.06 23.6865H153.371L157.561 35.8403H154.808L151.763 26.4638H151.668L148.618 35.8403ZM148.446 31.063H154.95V33.0689H148.446V31.063ZM150.837 22.5115L149.027 19.8113H151.36L152.624 22.5115H150.837Z" fill="#051A53"/>
<path d="M135.475 35.8403V23.6865H140.341C141.235 23.6865 141.981 23.8191 142.578 24.0841C143.176 24.3492 143.625 24.7171 143.925 25.1879C144.226 25.6548 144.376 26.1928 144.376 26.8021C144.376 27.2769 144.281 27.6943 144.091 28.0543C143.902 28.4104 143.64 28.7031 143.308 28.9326C142.98 29.1581 142.604 29.3183 142.181 29.4133V29.532C142.643 29.5518 143.077 29.6823 143.48 29.9237C143.888 30.165 144.218 30.5032 144.471 30.9384C144.724 31.3697 144.851 31.884 144.851 32.4814C144.851 33.1263 144.691 33.7019 144.37 34.2083C144.054 34.7108 143.585 35.1084 142.964 35.4012C142.343 35.6939 141.577 35.8403 140.667 35.8403H135.475ZM138.044 33.7395H140.139C140.855 33.7395 141.377 33.603 141.706 33.33C142.034 33.0531 142.198 32.6852 142.198 32.2262C142.198 31.8899 142.117 31.5932 141.955 31.3361C141.793 31.0789 141.561 30.8771 141.261 30.7307C140.964 30.5844 140.61 30.5112 140.198 30.5112H138.044V33.7395ZM138.044 28.7724H139.949C140.301 28.7724 140.614 28.711 140.887 28.5884C141.164 28.4618 141.381 28.2838 141.54 28.0543C141.702 27.8248 141.783 27.5499 141.783 27.2294C141.783 26.7903 141.627 26.4362 141.314 26.1671C141.006 25.8981 140.566 25.7636 139.997 25.7636H138.044V28.7724Z" fill="#051A53"/>
<path d="M126.952 27.615C126.869 27.3262 126.753 27.0711 126.602 26.8495C126.452 26.624 126.268 26.4341 126.05 26.2798C125.837 26.1215 125.591 26.0009 125.314 25.9178C125.041 25.8347 124.739 25.7932 124.406 25.7932C123.785 25.7932 123.239 25.9475 122.769 26.2561C122.302 26.5646 121.938 27.0137 121.677 27.6032C121.415 28.1887 121.285 28.9048 121.285 29.7515C121.285 30.5981 121.414 31.3182 121.671 31.9116C121.928 32.505 122.292 32.958 122.763 33.2706C123.233 33.5792 123.789 33.7335 124.43 33.7335C125.012 33.7335 125.508 33.6306 125.92 33.4249C126.335 33.2152 126.652 32.9205 126.869 32.5407C127.091 32.1609 127.202 31.7118 127.202 31.1935L127.724 31.2707H124.59V29.336H129.676V30.8671C129.676 31.9353 129.451 32.8532 129 33.6207C128.549 34.3843 127.928 34.9738 127.136 35.3892C126.345 35.8007 125.439 36.0064 124.418 36.0064C123.279 36.0064 122.278 35.7552 121.415 35.2527C120.553 34.7463 119.88 34.0282 119.398 33.0985C118.919 32.1648 118.68 31.057 118.68 29.7752C118.68 28.7901 118.822 27.9118 119.107 27.1403C119.396 26.3649 119.799 25.7081 120.318 25.17C120.836 24.632 121.439 24.2225 122.128 23.9416C122.816 23.6607 123.562 23.5203 124.365 23.5203C125.053 23.5203 125.694 23.6211 126.288 23.8229C126.881 24.0207 127.407 24.3016 127.866 24.6656C128.329 25.0296 128.707 25.4628 129 25.9653C129.292 26.4638 129.48 27.0137 129.564 27.615H126.952Z" fill="#051A53"/>
<path d="M116.77 23.6865V35.8403H114.551L109.263 28.1908H109.174V35.8403H106.604V23.6865H108.86L114.106 31.3301H114.212V23.6865H116.77Z" fill="#051A53"/>
<path d="M104.702 29.7635C104.702 31.0888 104.45 32.2164 103.948 33.1461C103.449 34.0758 102.769 34.786 101.907 35.2766C101.048 35.7632 100.083 36.0065 99.0105 36.0065C97.9304 36.0065 96.9611 35.7612 96.1026 35.2706C95.2441 34.7801 94.5656 34.0699 94.0671 33.1402C93.5686 32.2104 93.3193 31.0849 93.3193 29.7635C93.3193 28.4381 93.5686 27.3105 94.0671 26.3808C94.5656 25.4511 95.2441 24.7429 96.1026 24.2563C96.9611 23.7657 97.9304 23.5204 99.0105 23.5204C100.083 23.5204 101.048 23.7657 101.907 24.2563C102.769 24.7429 103.449 25.4511 103.948 26.3808C104.45 27.3105 104.702 28.4381 104.702 29.7635ZM102.096 29.7635C102.096 28.9049 101.968 28.1809 101.711 27.5914C101.457 27.002 101.099 26.5549 100.637 26.2503C100.174 25.9456 99.6316 25.7933 99.0105 25.7933C98.3893 25.7933 97.8473 25.9456 97.3844 26.2503C96.9216 26.5549 96.5615 27.002 96.3044 27.5914C96.0512 28.1809 95.9246 28.9049 95.9246 29.7635C95.9246 30.622 96.0512 31.346 96.3044 31.9355C96.5615 32.525 96.9216 32.972 97.3844 33.2767C97.8473 33.5813 98.3893 33.7336 99.0105 33.7336C99.6316 33.7336 100.174 33.5813 100.637 33.2767C101.099 32.972 101.457 32.525 101.711 31.9355C101.968 31.346 102.096 30.622 102.096 29.7635ZM95.9186 22.6896L98.3102 20.844H99.6752L102.079 22.6896H100.257L99.0046 21.6926L97.7346 22.6896H95.9186ZM101.455 21.6451L102.844 19.4197H104.803L102.886 21.6451H101.455Z" fill="#051A53"/>
<path d="M81.0645 35.8403V23.6865H83.6341V28.7011H88.8505V23.6865H91.4142V35.8403H88.8505V30.8198H83.6341V35.8403H81.0645Z" fill="#051A53"/>
<path d="M69.4385 25.8051V23.6865H79.4203V25.8051H75.6993V35.8403H73.1594V25.8051H69.4385Z" fill="#051A53"/>
<path d="M55.8018 35.8401V23.6863H63.9913V25.8049H58.3714V28.701H63.57V30.8196H58.3714V33.7215H64.0151V35.8401H55.8018ZM61.1072 22.5944L59.9143 21.1464L58.7215 22.5944H56.5673V22.5113L58.9708 19.9001H60.852L63.2614 22.5113V22.5944H61.1072ZM59.8728 39.2525C59.497 39.2525 59.1745 39.1278 58.9055 38.8786C58.6365 38.6293 58.5019 38.3287 58.5019 37.9765C58.5019 37.6244 58.6365 37.3237 58.9055 37.0745C59.1745 36.8253 59.497 36.7006 59.8728 36.7006C60.2487 36.7006 60.5691 36.8253 60.8342 37.0745C61.1032 37.3237 61.2377 37.6244 61.2377 37.9765C61.2377 38.3287 61.1032 38.6293 60.8342 38.8786C60.5691 39.1278 60.2487 39.2525 59.8728 39.2525Z" fill="#051A53"/>
<path d="M43.333 35.8403V23.6865H45.9026V28.7011H51.119V23.6865H53.6827V35.8403H51.119V30.8198H45.9026V35.8403H43.333Z" fill="#051A53"/>
<defs>
<clipPath id="clip0_10830_3147">
<rect width="33.3334" height="40.0001" fill="white"/>
</clipPath>
</defs>
</svg>